<?xml version="1.0" encoding="UTF-8"?>
<svg xmlns="http://www.w3.org/2000/svg" xmlns:xlink="http://www.w3.org/1999/xlink" width="24pt" height="24pt" viewBox="0 0 24 24" version="1.1">
<g id="surface1">
<path style=" stroke:none;fill-rule:nonzero;fill:#FFFFFF;fill-opacity:1;" d="M 13.40625 0 L 10.09375 1.59375 C 10.09375 1.59375 11.011719 3.492188 11.8125 4.59375 C 12.109375 4.976563 12.445313 5.261719 12.8125 5.46875 L 9.5625 7.09375 C 9.28125 7.238281 9.085938 7.503906 9.03125 7.8125 L 9 7.8125 C 9 7.8125 8.011719 11.804688 7.8125 11.90625 C 5.414063 13.804688 5 16 5 16 C 9.5 16 12.613281 19.207031 16.3125 20.40625 C 14.613281 19.304688 14.085938 18.1875 11.1875 16.6875 C 11.1875 16.277344 11.480469 15.804688 11.6875 15.46875 L 14.5625 16.90625 C 14.882813 17.066406 15.265625 17.042969 15.5625 16.84375 L 18.0625 15.1875 L 18.53125 16.1875 C 18.191406 16.789063 17.835938 18.191406 19.3125 21 C 20.113281 21 21.8125 20.394531 22.3125 19.59375 C 22.011719 18.394531 20.789063 16.8125 20.1875 16.3125 C 19.9375 16.132813 19.71875 16.011719 19.5 15.9375 L 18.875 14.53125 C 19.050781 14.246094 19.074219 13.890625 18.9375 13.582031 C 18.800781 13.277344 18.519531 13.058594 18.1875 13 L 15.125 6.125 C 15.183594 5.773438 15.054688 5.417969 14.78125 5.1875 C 15.023438 4.605469 14.902344 3.691406 14.6875 2.90625 C 14.386719 1.507813 13.40625 0 13.40625 0 Z M 14.375 6.9375 L 17.21875 13.28125 L 14.96875 14.8125 L 10.40625 12.3125 L 10.75 9.25 L 10.875 8.6875 Z M 13 9 C 11.894531 9 11 9.894531 11 11 C 11 12.105469 11.894531 13 13 13 C 14.105469 13 15 12.105469 15 11 C 15 9.894531 14.105469 9 13 9 Z M 5.8125 18 C 1.710938 18 0 22 0 22 C 0 22 1.1875 20 5.6875 20 C 9.886719 20 12.085938 24 17.6875 24 C 21.886719 24 24 20 24 20 C 24 20 21.507813 22 17.90625 22 C 12.804688 22 10.113281 18 5.8125 18 Z "/>
</g>
</svg>
