<?xml version="1.0" encoding="UTF-8"?>
<svg xmlns="http://www.w3.org/2000/svg" xmlns:xlink="http://www.w3.org/1999/xlink" width="50pt" height="50pt" viewBox="0 0 50 50" version="1.1">
<g id="surface1">
<path style=" stroke:none;fill-rule:nonzero;fill:#FFFFFF;fill-opacity:1;" d="M 2.976563 3.96875 C 2.429688 3.96875 1.984375 4.414063 1.984375 4.960938 L 1.984375 38.691406 C 1.984375 39.054688 2.183594 39.386719 2.503906 39.558594 L 13.414063 45.511719 C 13.710938 45.671875 14.066406 45.671875 14.367188 45.511719 L 24.820313 39.808594 L 36.261719 45.53125 C 36.566406 45.679688 36.925781 45.664063 37.21875 45.496094 L 47.136719 39.542969 C 47.4375 39.359375 47.617188 39.039063 47.617188 38.691406 L 47.617188 4.960938 C 47.617188 4.605469 47.425781 4.273438 47.117188 4.097656 C 46.804688 3.921875 46.425781 3.925781 46.117188 4.109375 L 36.664063 9.78125 L 25.246094 4.074219 C 24.957031 3.929688 24.613281 3.933594 24.324219 4.09375 L 13.890625 9.78125 L 3.449219 4.09375 C 3.304688 4.011719 3.144531 3.96875 2.976563 3.96875 Z M 24.820313 6.082031 L 36.261719 11.800781 C 36.566406 11.953125 36.925781 11.9375 37.21875 11.765625 L 45.636719 6.710938 L 45.636719 38.128906 L 36.664063 43.511719 L 25.246094 37.804688 C 24.957031 37.660156 24.613281 37.664063 24.324219 37.824219 L 13.890625 43.511719 L 3.96875 38.101563 L 3.96875 6.628906 L 13.414063 11.78125 C 13.710938 11.945313 14.066406 11.945313 14.367188 11.78125 Z M 16.863281 14.882813 L 10.914063 15.871094 L 8.929688 15.871094 L 6.945313 17.855469 L 6.945313 18.847656 L 8.929688 18.847656 L 9.921875 22.816406 L 12.898438 25.792969 L 11.90625 27.777344 L 13.890625 29.761719 L 14.882813 34.722656 L 16.863281 35.714844 L 17.855469 30.753906 L 18.847656 29.761719 L 19.839844 27.777344 L 17.855469 25.792969 L 13.890625 24.800781 L 13.890625 22.816406 L 17.855469 18.847656 L 15.871094 16.863281 L 16.863281 15.871094 Z M 18.847656 14.882813 L 17.855469 16.863281 L 18.847656 18.847656 L 21.824219 16.863281 L 21.824219 14.882813 Z M 33.730469 15.871094 L 26.785156 16.863281 L 23.808594 18.847656 L 23.808594 21.824219 L 26.785156 19.839844 L 26.785156 20.832031 L 22.816406 23.808594 L 21.824219 26.785156 L 24.800781 28.769531 L 25.792969 33.730469 L 27.777344 35.714844 L 30.753906 29.761719 L 30.753906 27.777344 L 28.769531 24.800781 L 26.785156 23.808594 L 28.769531 23.808594 L 30.753906 25.792969 L 33.730469 23.808594 L 34.722656 25.792969 L 35.714844 23.808594 L 37.699219 25.792969 L 38.691406 23.808594 L 40.675781 21.824219 L 39.683594 18.847656 L 42.660156 16.863281 Z M 40.675781 28.769531 L 36.707031 30.753906 L 36.707031 32.738281 L 38.691406 32.738281 L 40.675781 34.722656 L 41.667969 31.746094 Z "/>
</g>
</svg>
