<?xml version="1.0" encoding="UTF-8"?>
<svg xmlns="http://www.w3.org/2000/svg" xmlns:xlink="http://www.w3.org/1999/xlink" width="50pt" height="50pt" viewBox="0 0 50 50" version="1.1">
<g id="surface1">
<path style=" stroke:none;fill-rule:nonzero;fill:#FFFFFF;fill-opacity:1;" d="M 25.839844 6.867188 L 18.410156 19.703125 C 18.390625 19.730469 18.375 19.757813 18.359375 19.785156 L 14.667969 26.160156 L 11.65625 23.152344 L 1.851563 41.667969 L 4.101563 41.667969 L 12.152344 26.453125 L 15.09375 29.390625 L 19.5 21.773438 L 22.242188 24.125 L 25.714844 21.148438 L 29.1875 24.125 L 31.515625 22.125 L 39.574219 37.664063 L 41.589844 34.644531 L 45.492188 41.667969 L 47.761719 41.667969 L 41.746094 30.832031 L 39.792969 33.765625 L 32.828125 20.335938 C 32.828125 20.332031 32.828125 20.332031 32.828125 20.332031 C 32.789063 20.15625 32.703125 19.992188 32.582031 19.859375 Z M 25.746094 10.988281 L 30.582031 20.316406 L 29.1875 21.511719 L 25.714844 18.535156 L 22.242188 21.511719 L 20.511719 20.027344 Z "/>
</g>
</svg>
