<?xml version="1.0" encoding="UTF-8"?>
<svg xmlns="http://www.w3.org/2000/svg" xmlns:xlink="http://www.w3.org/1999/xlink" width="50pt" height="50pt" viewBox="0 0 50 50" version="1.1">
<g id="surface1">
<path style=" stroke:none;fill-rule:nonzero;fill:#FFFFFF;fill-opacity:1;" d="M 42.78125 10.914063 C 41.066406 10.914063 39.308594 11.289063 37.574219 12.058594 L 9.546875 24.585938 C 9.46875 24.625 9.390625 24.648438 9.332031 24.648438 C 9.097656 24.648438 8.695313 24.324219 8.339844 24.058594 C 7 23.070313 5.046875 21.652344 4.433594 21.175781 C 3.972656 20.820313 3.332031 20.617188 2.636719 20.617188 C 1.605469 20.617188 0.746094 21.027344 0.308594 21.703125 C -0.046875 22.25 -0.109375 22.929688 0.1875 23.59375 L 3.71875 31.4375 C 4.148438 32.394531 5.25 33.542969 8.089844 33.542969 C 11.324219 33.542969 16.339844 32.054688 22.601563 29.265625 L 23.902344 28.675781 L 21.640625 40.796875 C 21.367188 41.886719 21.40625 42.628906 21.792969 43.125 C 22.042969 43.441406 22.414063 43.621094 22.816406 43.621094 C 23.019531 43.621094 23.226563 43.589844 23.4375 43.496094 L 24.988281 42.8125 C 26.152344 42.292969 27.402344 40.6875 27.964844 39.464844 L 35.34375 23.5 C 49.460938 16.886719 50.09375 15.488281 49.480469 14.105469 C 48.769531 12.519531 46.25 10.914063 42.78125 10.914063 Z M 13.765625 12.835938 C 13.207031 12.835938 12.40625 12.898438 11.78125 13.175781 L 10.230469 13.859375 C 9.71875 14.085938 9.382813 14.523438 9.363281 15.035156 C 9.332031 15.992188 10.304688 16.601563 10.976563 16.957031 L 15.53125 19.75 L 24.523438 15.71875 L 16.214844 13.175781 C 15.460938 12.945313 14.609375 12.835938 13.765625 12.835938 Z "/>
</g>
</svg>
