<svg xmlns="http://www.w3.org/2000/svg" viewBox="0 0 50.04 40.63"><title>twitter</title><g id="Layer_2" data-name="Layer 2"><g id="Layer_1-2" data-name="Layer 1"><g id="twitter"><path d="M50,4.81a20.44,20.44,0,0,1-5.9,1.62A10.27,10.27,0,0,0,48.58.75a20.34,20.34,0,0,1-6.52,2.49,10.25,10.25,0,0,0-17.47,9.33A29.09,29.09,0,0,1,3.44,1.88a10.28,10.28,0,0,0,3.17,13.7A10.26,10.26,0,0,1,2,14.3v.12a10.27,10.27,0,0,0,8.23,10.06,10.28,10.28,0,0,1-2.7.37,10.43,10.43,0,0,1-1.93-.19,10.25,10.25,0,0,0,9.58,7.12,20.58,20.58,0,0,1-12.7,4.39A22,22,0,0,1,0,36a29,29,0,0,0,15.72,4.6c18.86,0,29.19-15.63,29.19-29.18V10.12A20.72,20.72,0,0,0,50,4.81"/></g></g></g></svg>